# xmcd
#
# Track frame offsets:
#	150
#	17670
#	33840
#	50752
#	65752
#	82170
#	99195
#	112552
#	131422
#	145683
#	161268
#	176527
#
# Disc length: 2568 seconds
#
# Revision: 0
# Processed by: cddbd v1.5.2PL0 Copyright (c) Steve Scherf et al.
# Submitted via: audiograbber 1.83.01
#
DISCID=8f0a060c
DTITLE=Nancy Mareen - Originals Nancy Mareen
DYEAR=2008
DGENRE=Crossover
TTITLE0=Hey what are you
TTITLE1=My love is true
TTITLE2=Don t want you
TTITLE3=Countrysongs
TTITLE4=Life is beautiful
TTITLE5=No End of the
TTITLE6=Fly like a bird
TTITLE7=Because I have you
TTITLE8=Will you be
TTITLE9=In my dreams
TTITLE10=You make me cry
TTITLE11=Take me as I am
EXTD=
EXTT0=
EXTT1=
EXTT2=
EXTT3=
EXTT4=
EXTT5=
EXTT6=
EXTT7=
EXTT8=
EXTT9=
EXTT10=
EXTT11=
PLAYORDER=
